<svg xmlns="http://www.w3.org/2000/svg" width="23" height="23" viewBox="0 0 23 23"><g><g><path fill="#b7bec7" d="M21.27 12.48c.34 0 .63.125.87.375s.36.555.36.915v7.5c0 .34-.12.63-.36.87s-.53.36-.87.36H1.23c-.34 0-.63-.12-.87-.36S0 21.61 0 21.27v-7.5c0-.36.12-.665.36-.915s.53-.375.87-.375zm-16.29 7.5c.68 0 1.27-.24 1.77-.72s.75-1.06.75-1.74c0-.68-.25-1.27-.75-1.77S5.66 15 4.98 15c-.68 0-1.26.25-1.74.75s-.72 1.09-.72 1.77c0 .68.24 1.26.72 1.74s1.06.72 1.74.72zM21.27 0c.34 0 .63.12.87.36s.36.53.36.87v7.5c0 .34-.12.64-.36.9s-.53.39-.87.39H1.23c-.34 0-.63-.13-.87-.39S0 9.07 0 8.73v-7.5C0 .89.12.6.36.36S.89 0 1.23 0zM4.98 7.5c.68 0 1.27-.25 1.77-.75s.75-1.09.75-1.77c0-.68-.25-1.26-.75-1.74s-1.09-.72-1.77-.72c-.68 0-1.26.24-1.74.72a2.37 2.37 0 0 0-.72 1.74c0 .68.24 1.27.72 1.77s1.06.75 1.74.75z"/></g></g></svg>