<svg xmlns="http://www.w3.org/2000/svg" width="28" height="19" viewBox="0 0 28 19"><g><g opacity=".75"><path fill="#b7bec7" d="M18.98 8.27c-.66 0-1.28-.17-1.86-.51-.58-.34-1.04-.8-1.38-1.38-.34-.58-.51-1.2-.51-1.86 0-.66.17-1.28.51-1.86.34-.58.8-1.04 1.38-1.38.58-.34 1.2-.51 1.86-.51.66 0 1.28.17 1.86.51.58.34 1.04.8 1.38 1.38.34.58.51 1.2.51 1.86 0 .66-.17 1.28-.51 1.86-.34.58-.8 1.04-1.38 1.38-.58.34-1.2.51-1.86.51zm-9.96 0c-.66 0-1.28-.17-1.86-.51-.58-.34-1.04-.8-1.38-1.38-.34-.58-.51-1.2-.51-1.86 0-.66.17-1.28.51-1.86.34-.58.8-1.04 1.38-1.38.58-.34 1.2-.51 1.86-.51.66 0 1.275.17 1.845.51.57.34 1.02.795 1.35 1.365.33.57.495 1.195.495 1.875 0 .68-.165 1.305-.495 1.875-.33.57-.78 1.025-1.35 1.365-.57.34-1.185.51-1.845.51zm0 2.46c1.08 0 2.27.16 3.57.48 1.46.38 2.64.87 3.54 1.47 1.08.72 1.62 1.53 1.62 2.43v3.12H.23v-3.12c0-.9.54-1.71 1.62-2.43.92-.6 2.11-1.09 3.57-1.47 1.32-.32 2.52-.48 3.6-.48zm9.96 0c1.08 0 2.28.16 3.6.48 1.46.38 2.65.87 3.57 1.47 1.08.72 1.62 1.53 1.62 2.43v3.12h-7.5v-3.12c0-1.7-.82-3.14-2.46-4.32.28-.04.67-.06 1.17-.06z"/></g></g></svg>