<svg xmlns="http://www.w3.org/2000/svg" width="14" height="17" viewBox="0 0 14 17"><g><g><path fill="#fff" d="M7 16.32c-.453 0-.847-.16-1.18-.48a1.55 1.55 0 0 1-.5-1.16h3.36c0 .453-.167.84-.5 1.16-.333.32-.727.48-1.18.48zm5-5L13.68 13v.82H.32V13L2 11.32V7.18c0-1.307.327-2.433.98-3.38.667-.973 1.593-1.607 2.78-1.9v-.58c0-.347.12-.643.36-.89S6.653.06 7 .06s.643.123.89.37.37.543.37.89v.58c1.173.293 2.093.933 2.76 1.92.653.947.98 2.067.98 3.36zm-1.68.86v-5a4.45 4.45 0 0 0-.4-1.9 3.125 3.125 0 0 0-1.14-1.34c-.507-.347-1.1-.52-1.78-.52-.68 0-1.273.173-1.78.52-.493.32-.873.767-1.14 1.34a4.45 4.45 0 0 0-.4 1.9v5z"/></g></g></svg>